<?xml version="1.0" encoding="utf-8"?>
<svg version="1.1" xmlns:xlink="http://www.w3.org/1999/xlink" width="33px" height="36px" xmlns="http://www.w3.org/2000/svg">
  <g transform="matrix(1 0 0 1 -1103 -927 )">
    <path d="M 2.53846153846143 27.6428571428571  L 2.53846153846143 33.4285714285714  L 8.25 33.4285714285714  L 8.25 27.6428571428571  L 2.53846153846143 27.6428571428571  Z M 9.51923076923094 27.6428571428571  L 9.51923076923094 33.4285714285714  L 15.8653846153845 33.4285714285714  L 15.8653846153845 27.6428571428571  L 9.51923076923094 27.6428571428571  Z M 2.53846153846143 19.9285714285714  L 2.53846153846143 26.3571428571429  L 8.25 26.3571428571429  L 8.25 19.9285714285714  L 2.53846153846143 19.9285714285714  Z M 9.51923076923094 19.9285714285714  L 9.51923076923094 26.3571428571429  L 15.8653846153845 26.3571428571429  L 15.8653846153845 19.9285714285714  L 9.51923076923094 19.9285714285714  Z M 2.53846153846143 12.8571428571429  L 2.53846153846143 18.6428571428571  L 8.25 18.6428571428571  L 8.25 12.8571428571429  L 2.53846153846143 12.8571428571429  Z M 17.1346153846155 27.6428571428571  L 17.1346153846155 33.4285714285714  L 23.4807692307691 33.4285714285714  L 23.4807692307691 27.6428571428571  L 17.1346153846155 27.6428571428571  Z M 9.51923076923094 12.8571428571429  L 9.51923076923094 18.6428571428571  L 15.8653846153845 18.6428571428571  L 15.8653846153845 12.8571428571429  L 9.51923076923094 12.8571428571429  Z M 24.75 27.6428571428571  L 24.75 33.4285714285714  L 30.4615384615386 33.4285714285714  L 30.4615384615386 27.6428571428571  L 24.75 27.6428571428571  Z M 17.1346153846155 19.9285714285714  L 17.1346153846155 26.3571428571429  L 23.4807692307691 26.3571428571429  L 23.4807692307691 19.9285714285714  L 17.1346153846155 19.9285714285714  Z M 9.96544471153857 9.45200892857144  C 10.0910456730769 9.32477678571433  10.1538461538462 9.17410714285711  10.1538461538462 9  L 10.1538461538462 3.21428571428567  C 10.1538461538462 3.04017857142856  10.0910456730769 2.88950892857144  9.96544471153857 2.76227678571433  C 9.83984375 2.63504464285711  9.69110576923072 2.57142857142856  9.51923076923094 2.57142857142856  L 8.25 2.57142857142856  C 8.078125 2.57142857142856  7.92938701923072 2.63504464285711  7.80378605769238 2.76227678571433  C 7.67818509615381 2.88950892857144  7.61538461538453 3.04017857142856  7.61538461538453 3.21428571428567  L 7.61538461538453 9  C 7.61538461538453 9.17410714285711  7.67818509615381 9.32477678571433  7.80378605769238 9.45200892857144  C 7.92938701923072 9.57924107142856  8.078125 9.64285714285711  8.25 9.64285714285711  L 9.51923076923094 9.64285714285711  C 9.69110576923072 9.64285714285711  9.83984375 9.57924107142856  9.96544471153857 9.45200892857144  Z M 24.75 19.9285714285714  L 24.75 26.3571428571429  L 30.4615384615386 26.3571428571429  L 30.4615384615386 19.9285714285714  L 24.75 19.9285714285714  Z M 17.1346153846155 12.8571428571429  L 17.1346153846155 18.6428571428571  L 23.4807692307691 18.6428571428571  L 23.4807692307691 12.8571428571429  L 17.1346153846155 12.8571428571429  Z M 24.75 12.8571428571429  L 24.75 18.6428571428571  L 30.4615384615386 18.6428571428571  L 30.4615384615386 12.8571428571429  L 24.75 12.8571428571429  Z M 25.1962139423076 9.45200892857144  C 25.3218149038462 9.32477678571433  25.3846153846155 9.17410714285711  25.3846153846155 9  L 25.3846153846155 3.21428571428567  C 25.3846153846155 3.04017857142856  25.3218149038462 2.88950892857144  25.1962139423076 2.76227678571433  C 25.0706129807693 2.63504464285711  24.921875 2.57142857142856  24.75 2.57142857142856  L 23.4807692307691 2.57142857142856  C 23.3088942307693 2.57142857142856  23.16015625 2.63504464285711  23.0345552884614 2.76227678571433  C 22.9089543269231 2.88950892857144  22.8461538461538 3.04017857142856  22.8461538461538 3.21428571428567  L 22.8461538461538 9  C 22.8461538461538 9.17410714285711  22.9089543269231 9.32477678571433  23.0345552884614 9.45200892857144  C 23.16015625 9.57924107142856  23.3088942307693 9.64285714285711  23.4807692307691 9.64285714285711  L 24.75 9.64285714285711  C 24.921875 9.64285714285711  25.0706129807693 9.57924107142856  25.1962139423076 9.45200892857144  Z M 32.2463942307691 5.90625  C 32.7487980769231 6.41517857142856  33 7.01785714285711  33 7.71428571428567  L 33 33.4285714285714  C 33 34.125  32.7487980769231 34.7276785714286  32.2463942307691 35.2366071428571  C 31.7439903846152 35.7455357142857  31.1490384615386 36  30.4615384615386 36  L 2.53846153846143 36  C 1.85096153846143 36  1.25600961538476 35.7455357142857  0.753605769230944 35.2366071428571  C 0.251201923077133 34.7276785714286  0 34.125  0 33.4285714285714  L 0 7.71428571428567  C 0 7.01785714285711  0.251201923077133 6.41517857142856  0.753605769230944 5.90625  C 1.25600961538476 5.39732142857144  1.85096153846143 5.14285714285711  2.53846153846143 5.14285714285711  L 5.07692307692309 5.14285714285711  L 5.07692307692309 3.21428571428567  C 5.07692307692309 2.33035714285711  5.38762019230762 1.57366071428567  6.00901442307691 0.944196428571445  C 6.63040865384619 0.31473214285711  7.37740384615381 0  8.25 0  L 9.51923076923094 0  C 10.3918269230769 0  11.1388221153845 0.31473214285711  11.7602163461538 0.944196428571445  C 12.3816105769229 1.57366071428567  12.6923076923076 2.33035714285711  12.6923076923076 3.21428571428567  L 12.6923076923076 5.14285714285711  L 20.3076923076924 5.14285714285711  L 20.3076923076924 3.21428571428567  C 20.3076923076924 2.33035714285711  20.6183894230771 1.57366071428567  21.2397836538462 0.944196428571445  C 21.8611778846155 0.31473214285711  22.6081730769231 0  23.4807692307691 0  L 24.75 0  C 25.6225961538462 0  26.3695913461538 0.31473214285711  26.9909855769231 0.944196428571445  C 27.6123798076924 1.57366071428567  27.9230769230769 2.33035714285711  27.9230769230769 3.21428571428567  L 27.9230769230769 5.14285714285711  L 30.4615384615386 5.14285714285711  C 31.1490384615386 5.14285714285711  31.7439903846152 5.39732142857144  32.2463942307691 5.90625  Z " fill-rule="nonzero" fill="#000000" stroke="none" transform="matrix(1 0 0 1 1103 927 )" />
  </g>
</svg>