<?xml version="1.0" encoding="utf-8"?>
<svg version="1.1" xmlns:xlink="http://www.w3.org/1999/xlink" width="28px" height="39px" xmlns="http://www.w3.org/2000/svg">
  <g transform="matrix(1 0 0 1 -2352 -1184 )">
    <path d="M 17.053554040896 38.6264993686868  C 16.8808828302499 38.8014257154884  16.6764037650114 38.8888888888889  16.4401168451802 38.8888888888889  L 11.7507302823758 38.8888888888889  C 11.5144433625444 38.8888888888889  11.3099642973061 38.8060290404044  11.1372930866601 38.6403093434346  C 10.9646218760142 38.4745896464649  10.8782862706914 38.2628367003367  10.8782862706914 38.0050505050506  L 10.8782862706914 28.8904671717171  L 3.02629016553067 28.8904671717171  C 2.79000324569949 28.8904671717171  2.58552418046088 28.8076073232323  2.41285296981505 28.6418876262626  C 2.24018175916922 28.4761679292928  2.15384615384619 28.2644149831649  2.15384615384619 28.006628787879  L 2.15384615384619 25.1617739898991  C 2.15384615384619 24.9224010942762  2.24018175916922 24.7152514730642  2.41285296981505 24.5403251262626  C 2.58552418046088 24.3653987794614  2.79000324569949 24.2779356060605  3.02629016553067 24.2779356060605  L 10.8782862706914 24.2779356060605  L 10.8782862706914 21.9302398989901  L 3.02629016553067 21.9302398989901  C 2.79000324569949 21.9302398989901  2.58552418046088 21.8473800505051  2.41285296981505 21.6816603535353  C 2.24018175916922 21.5159406565658  2.15384615384619 21.3041877104379  2.15384615384619 21.0464015151517  L 2.15384615384619 18.1739267676769  C 2.15384615384619 17.9345538720538  2.24018175916922 17.7274042508418  2.41285296981505 17.5524779040406  C 2.58552418046088 17.377551557239  2.79000324569949 17.2900883838383  3.02629016553067 17.2900883838383  L 8.86075949367091 17.2900883838383  L 0.109055501460489 1.32575757575773  C -0.0363518338201629 1.03114478114503  -0.0363518338201629 0.736531986531872  0.109055501460489 0.441919191919169  C 0.290814670561417 0.147306397306465  0.545277507302785 0  0.872444011684593 0  L 6.16163583252194 0  C 6.5069782538136 0  6.77052904901007 0.165719696969745  6.95228821811099 0.497159090909236  L 12.8140214216164 12.2356376262626  C 13.1593638429083 12.9353430134681  13.6682895163908 14.0861742424242  14.3407984420644 15.6881313131314  C 14.5225576111652 15.246212121212  14.7997403440443 14.6201599326598  15.1723466407009 13.8099747474748  C 15.5449529373579 12.9997895622896  15.7948717948718 12.4381839225589  15.9221032132425 12.1251578282829  L 21.1295034079844 0.524779040403928  C 21.2749107432651 0.174926346801158  21.5384615384617 0  21.9201557935735 0  L 27.1275559883154 0  C 27.4365465757869 0  27.6819214540733 0.147306397306465  27.8636806231741 0.441919191919169  C 28.027263875365 0.69970538720554  28.0363518338202 0.985111531986377  27.8909444985395 1.29813762626259  L 19.3573515092503 17.2900883838383  L 25.2190847127554 17.2900883838383  C 25.4553716325868 17.2900883838383  25.6598506978255 17.377551557239  25.8325219084711 17.5524779040406  C 26.0051931191172 17.7274042508418  26.09152872444 17.9345538720538  26.09152872444 18.1739267676769  L 26.09152872444 21.0464015151517  C 26.09152872444 21.3041877104379  26.0051931191172 21.5159406565658  25.8325219084711 21.6816603535353  C 25.6598506978255 21.8473800505051  25.4553716325868 21.9302398989901  25.2190847127554 21.9302398989901  L 17.3125608568648 21.9302398989901  L 17.3125608568648 24.2779356060605  L 25.2190847127554 24.2779356060605  C 25.4553716325868 24.2779356060605  25.6598506978255 24.3653987794614  25.8325219084711 24.5403251262626  C 26.0051931191172 24.7152514730642  26.09152872444 24.9224010942762  26.09152872444 25.1617739898991  L 26.09152872444 28.006628787879  C 26.09152872444 28.2644149831649  26.0051931191172 28.4761679292928  25.8325219084711 28.6418876262626  C 25.6598506978255 28.8076073232323  25.4553716325868 28.8904671717171  25.2190847127554 28.8904671717171  L 17.3125608568648 28.8904671717171  L 17.3125608568648 38.0050505050506  C 17.3125608568648 38.2444234006737  17.2262252515416 38.4515730218857  17.053554040896 38.6264993686868  Z " fill-rule="nonzero" fill="#000000" stroke="none" transform="matrix(1 0 0 1 2352 1184 )" />
  </g>
</svg>