<?xml version="1.0" encoding="utf-8"?>
<svg version="1.1" xmlns:xlink="http://www.w3.org/1999/xlink" width="31px" height="27px" xmlns="http://www.w3.org/2000/svg">
  <g transform="matrix(1 0 0 1 -4849 -710 )">
    <path d="M 30.2693602693603 20.1818181818181  C 30.7564534231201 20.6060606060606  31 21.1212121212121  31 21.7272727272727  C 31 22.3333333333334  30.7564534231201 22.8484848484849  30.2693602693603 23.2727272727273  L 26.7205387205386 26.3636363636364  C 26.2334455667788 26.7878787878788  25.641975308642 27  24.9461279461279 27  C 24.2502805836139 27  23.6588103254771 26.7878787878788  23.1717171717173 26.3636363636364  L 15.5 19.6818181818181  L 7.82828282828268 26.3636363636364  C 7.34118967452287 26.7878787878788  6.74971941638614 27  6.05387205387206 27  C 5.35802469135797 27  4.76655443322124 26.7878787878788  4.27946127946143 26.3636363636364  L 0.730639730639723 23.2727272727273  C 0.243546576879908 22.8484848484849  0 22.3333333333334  0 21.7272727272727  C 0 21.1212121212121  0.243546576879908 20.6060606060606  0.730639730639723 20.1818181818181  L 8.40235690235704 13.5  L 0.730639730639723 6.81818181818187  C 0.243546576879908 6.39393939393938  0 5.87878787878788  0 5.27272727272725  C 0 4.66666666666663  0.243546576879908 4.15151515151513  0.730639730639723 3.72727272727275  L 4.27946127946143 0.636363636363626  C 4.76655443322124 0.212121212121247  5.35802469135797 0  6.05387205387206 0  C 6.74971941638614 0  7.34118967452287 0.212121212121247  7.82828282828268 0.636363636363626  L 15.5 7.31818181818187  L 23.1717171717173 0.636363636363626  C 23.6588103254771 0.212121212121247  24.2502805836139 0  24.9461279461279 0  C 25.641975308642 0  26.2334455667788 0.212121212121247  26.7205387205386 0.636363636363626  L 30.2693602693603 3.72727272727275  C 30.7564534231201 4.15151515151513  31 4.66666666666663  31 5.27272727272725  C 31 5.87878787878788  30.7564534231201 6.39393939393938  30.2693602693603 6.81818181818187  L 22.597643097643 13.5  L 30.2693602693603 20.1818181818181  Z " fill-rule="nonzero" fill="#333333" stroke="none" transform="matrix(1 0 0 1 4849 710 )" />
  </g>
</svg>