<?xml version="1.0" encoding="utf-8"?>
<svg version="1.1" xmlns:xlink="http://www.w3.org/1999/xlink" width="43px" height="50px" xmlns="http://www.w3.org/2000/svg">
  <g transform="matrix(1 0 0 1 -7733 -433 )">
    <path d="M 32.3619791666667 1.89732142857143  L 41.0963541666667 10.6026785714286  C 41.6189236111111 11.1235119047619  42.0668402777778 11.8303571428571  42.4401041666667 12.7232142857143  C 42.8133680555556 13.6160714285714  43 14.4345238095238  43 15.1785714285714  L 43 47.3214285714286  C 43 48.0654761904762  42.7387152777778 48.6979166666667  42.2161458333333 49.21875  C 41.6935763888889 49.7395833333333  41.0590277777778 50  40.3125 50  L 2.6875 50  C 1.94097222222222 50  1.30642361111111 49.7395833333333  0.783854166666667 49.21875  C 0.261284722222222 48.6979166666667  0 48.0654761904762  0 47.3214285714286  L 0 2.67857142857143  C 0 1.93452380952381  0.261284722222222 1.30208333333333  0.783854166666667 0.78125  C 1.30642361111111 0.260416666666669  1.94097222222222 0  2.6875 0  L 27.7708333333333 0  C 28.5173611111111 0  29.3385416666667 0.186011904761907  30.234375 0.558035714285715  C 31.1302083333333 0.930059523809523  31.8394097222222 1.37648809523809  32.3619791666667 1.89732142857143  Z M 29.814453125 4.40848214285715  C 29.5904947916667 4.18526785714285  29.2078993055556 3.98065476190476  28 3.79464285714285  L 28 15  L 39.1927083333333 15  C 39.0060763888889 13.7462797619048  38.80078125 13.3649553571429  38.5768229166667 13.1417410714286  L 29.814453125 4.40848214285715  Z M 4 46  L 39 46  L 39 18  L 27.7708333333333 18  C 27.0243055555556 17.8571428571429  26.3897569444444 17.5967261904762  25.8671875 17.0758928571429  C 25.3446180555556 16.5550595238095  25.0833333333333 15.922619047619  25 15.1785714285714  L 25 4  L 4 4  L 4 46  Z M 14.9212239583333 21.4285714285714  L 6.52278645833333 21.4285714285714  L 6.52278645833333 24.4140625  L 8.482421875 24.4140625  L 13.0735677083333 42.8571428571429  L 17.5247395833333 42.8571428571429  L 21.1080729166667 29.3247767857143  C 21.2387152777778 28.9527529761905  21.33203125 28.5249255952381  21.3880208333333 28.0412946428571  C 21.4253472222222 27.7436755952381  21.4440104166667 27.5204613095238  21.4440104166667 27.3716517857143  L 21.5559895833333 27.3716517857143  L 21.6399739583333 28.0412946428571  C 21.6586371527778 28.0970982142857  21.6912977430556 28.2831101190476  21.7379557291667 28.5993303571429  C 21.7846137152778 28.9155505952381  21.8359375 29.1573660714286  21.8919270833333 29.3247767857143  L 25.4752604166667 42.8571428571429  L 29.9264322916667 42.8571428571429  L 34.517578125 24.4140625  L 36.4772135416667 24.4140625  L 36.4772135416667 21.4285714285714  L 28.0787760416667 21.4285714285714  L 28.0787760416667 24.4140625  L 30.5983072916667 24.4140625  L 27.8268229166667 36.6350446428571  C 27.7335069444444 37.007068452381  27.6681857638889 37.4348958333333  27.630859375 37.9185267857143  L 27.5748697916667 38.5044642857143  L 27.462890625 38.5044642857143  C 27.462890625 38.4486607142857  27.4582248263889 38.3882068452381  27.4488932291667 38.3231026785714  C 27.4395616319444 38.2579985119048  27.4255642361111 38.18359375  27.4069010416667 38.0998883928571  C 27.3882378472222 38.0161830357143  27.37890625 37.9557291666667  27.37890625 37.9185267857143  C 27.3602430555556 37.8255208333333  27.3229166666667 37.6302083333333  27.2669270833333 37.3325892857143  C 27.2109375 37.0349702380952  27.1642795138889 36.8024553571429  27.126953125 36.6350446428571  L 23.095703125 21.4285714285714  L 19.904296875 21.4285714285714  L 15.873046875 36.6350446428571  C 15.8357204861111 36.8024553571429  15.7937282986111 37.0303199404762  15.7470703125 37.3186383928571  C 15.7004123263889 37.6069568452381  15.6677517361111 37.8069196428571  15.6490885416667 37.9185267857143  L 15.537109375 38.5044642857143  L 15.4251302083333 38.5044642857143  L 15.369140625 37.9185267857143  C 15.3318142361111 37.4348958333333  15.2664930555556 37.007068452381  15.1731770833333 36.6350446428571  L 12.4016927083333 24.4140625  L 14.9212239583333 24.4140625  L 14.9212239583333 21.4285714285714  Z " fill-rule="nonzero" fill="#000000" stroke="none" transform="matrix(1 0 0 1 7733 433 )" />
  </g>
</svg>