<?xml version="1.0" encoding="utf-8"?>
<svg version="1.1" xmlns:xlink="http://www.w3.org/1999/xlink" width="30px" height="24px" xmlns="http://www.w3.org/2000/svg">
  <g transform="matrix(1 0 0 1 -1427 -1125 )">
    <path d="M 13.9910313901346 17.55  L 14.932735426009 17.55  L 16.8834080717488 15.6221590909091  L 14.3273542600896 13.0960227272727  L 12.3766816143498 15.0238636363637  L 12.3766816143498 15.9545454545455  L 13.9910313901346 15.9545454545455  L 13.9910313901346 17.55  Z M 22.3150224215246 6.13252840909092  C 22.5056053811659 5.94417613636358  22.5112107623318 5.76136363636363  22.3318385650225 5.58409090909095  C 22.152466367713 5.40681818181815  21.9674887892377 5.41235795454543  21.7769058295964 5.60071022727277  L 15.8912556053813 11.417471590909  C 15.7006726457398 11.6058238636364  15.6950672645739 11.7886363636363  15.8744394618834 11.9659090909091  C 16.0538116591929 12.1431818181818  16.2387892376682 12.1376420454545  16.4293721973095 11.9492897727273  L 22.3150224215246 6.13252840909092  Z M 23.3408071748879 14.9740056818182  C 23.5650224215246 15.0626420454545  23.6771300448431 15.2232954545455  23.6771300448431 15.4559659090909  L 23.6771300448431 18.6136363636364  C 23.6771300448431 19.9321022727272  23.203475336323 21.0594460227272  22.2561659192825 21.9956676136363  C 21.3088565022422 22.9318892045454  20.1681614349775 23.4  18.8340807174889 23  L 4.84304932735427 23  C 3.50896860986541 23.4  2.36827354260095 22.9318892045454  1.42096412556043 21.9956676136363  C 0.473654708520144 21.0594460227272  0 19.9321022727272  0 18.6136363636364  L 0 4.7863636363636  C 0 3.46789772727277  0.473654708520144 2.34055397727275  1.42096412556043 1.40433238636365  C 2.36827354260095 0.46811079545455  3.50896860986541 0  4.84304932735427 0  L 18.8340807174889 0  C 19.5403587443946 0  20.1961883408071 0.13849431818187  20.8015695067265 0.415482954545496  C 20.969730941704 0.493039772727229  21.0706278026905 0.62045454545455  21.104260089686 0.797727272727229  C 21.1378923766815 0.986079545454572  21.0874439461884 1.14673295454543  20.9529147982062 1.27968750000002  L 20.1289237668161 2.09403409090908  C 19.9719730941704 2.24914772727277  19.7926008968609 2.29346590909086  19.5908071748879 2.22698863636367  C 19.3329596412557 2.16051136363637  19.0807174887893 2.12727272727273  18.8340807174889 2.12727272727273  L 4.84304932735427 2.12727272727273  C 4.10313901345285 2.12727272727273  3.46973094170403 2.38764204545453  2.94282511210758 2.90838068181813  C 2.41591928251114 3.42911931818185  2.15246636771303 4.05511363636367  2.15246636771303 4.7863636363636  L 2.15246636771303 18.6136363636364  C 2.15246636771303 19.3448863636363  2.41591928251114 19.9708806818181  2.94282511210758 20.4916193181818  C 3.46973094170403 21.0123579545455  4.10313901345285 21.2727272727273  4.84304932735427 21  L 18.8340807174889 21  C 19.5739910313901 21.2727272727273  20.2073991031391 21.0123579545455  20.7343049327355 20.4916193181818  C 21.2612107623318 19.9708806818181  21.5246636771301 19.3448863636363  21.5246636771301 18.6136363636364  L 21.5246636771301 16.5196022727273  C 21.5246636771301 16.3755681818182  21.5751121076232 16.2536931818181  21.6760089686099 16.1539772727273  L 22.7522421524664 15.0903409090909  C 22.9204035874438 14.9241477272727  23.1165919282512 14.8853693181818  23.3408071748879 14.9740056818182  Z M 10.7623318385649 14.3590909090909  L 22.0627802690583 3.19090909090903  L 26.9058295964126 7.97727272727275  L 15.6053811659192 19.1454545454545  L 10.7623318385649 19.1454545454545  L 10.7623318385649 14.3590909090909  Z M 30 4.25454545454545  C 30 4.69772727272732  29.8430493273543 5.07443181818178  29.5291479820628 5.38465909090905  L 27.982062780269 6.91363636363633  L 23.1390134529147 2.12727272727273  L 24.6860986547085 0.59829545454545  C 25 0.288068181818176  25.3811659192825 0.132954545454595  25.8295964125562 0.132954545454595  C 26.2780269058296 0.132954545454595  26.6591928251121 0.288068181818176  26.9730941704036 0.59829545454545  L 29.5291479820628 3.12443181818185  C 29.8430493273543 3.43465909090912  30 3.81136363636358  30 4.25454545454545  Z " fill-rule="nonzero" fill="#000000" stroke="none" transform="matrix(1 0 0 1 1427 1125 )" />
  </g>
</svg>