<?xml version="1.0" encoding="utf-8"?>
<svg version="1.1" xmlns:xlink="http://www.w3.org/1999/xlink" width="36px" height="36px" xmlns="http://www.w3.org/2000/svg">
  <g transform="matrix(1 0 0 1 -768 -368 )">
    <path d="M 24 28  L 24 24  L 0 24  L 0 28  L 24 28  Z M 24 12  L 24 8  L 0 8  L 0 12  L 24 12  Z M 0 16  L 0 20  L 36 20  L 36 16  L 0 16  Z M 0 32  L 0 36  L 36 36  L 36 32  L 0 32  Z M 36 0  L 0 0  L 0 4  L 36 4  L 36 0  Z " fill-rule="nonzero" fill="#000000" stroke="none" transform="matrix(1 0 0 1 768 368 )" />
  </g>
</svg>