<?xml version="1.0" encoding="utf-8"?>
<svg version="1.1" xmlns:xlink="http://www.w3.org/1999/xlink" width="34px" height="30px" xmlns="http://www.w3.org/2000/svg">
  <g transform="matrix(1 0 0 1 -4887 -668 )">
    <path d="M 15.8565022421526 22.5  L 16.9237668161431 22.5  L 19.134529147982 20.0284090909091  L 16.2376681614351 16.7897727272727  L 14.0269058295962 19.2613636363636  L 14.0269058295962 20.4545454545455  L 15.8565022421526 20.4545454545455  L 15.8565022421526 22.5  Z M 25.2903587443943 7.86221590909088  C 25.506352765321 7.62073863636363  25.512705530643 7.38636363636363  25.3094170403583 7.15909090909088  C 25.1061285500746 6.93181818181813  24.8964872944698 6.9389204545455  24.6804932735422 7.18039772727275  L 18.0100896860986 14.6377840909091  C 17.7940956651719 14.8792613636364  17.7877428998509 15.1136363636364  17.9910313901346 15.3409090909091  C 18.1943198804183 15.5681818181819  18.403961136024 15.5610795454545  18.6199551569507 15.3196022727273  L 25.2903587443943 7.86221590909088  Z M 26.4529147982066 19.1974431818181  C 26.7070254110613 19.3110795454545  26.8340807174891 19.5170454545455  26.8340807174891 19.8153409090909  L 26.8340807174891 23.8636363636364  C 26.8340807174891 25.5539772727273  26.2972720478328 26.9992897727273  25.2236547085204 28.1995738636364  C 24.1500373692079 29.3998579545455  22.8572496263077 30  21.3452914798208 30  L 5.48878923766824 30  C 3.97683109118088 30  2.68404334828119 29.3998579545455  1.61042600896872 28.1995738636364  C 0.536808669656239 26.9992897727273  0 25.5539772727273  0 23.8636363636364  L 0 6.13636363636363  C 0 4.44602272727275  0.536808669656239 3.00071022727275  1.61042600896872 1.80042613636363  C 2.68404334828119 0.600142045454504  3.97683109118088 0  5.48878923766824 0  L 21.3452914798208 0  C 22.1457399103138 0  22.8890134529147 0.17755681818187  23.5751121076237 0.532670454545496  C 23.7656950672645 0.632102272727252  23.8800448430493 0.795454545454504  23.9181614349773 1.02272727272725  C 23.9562780269061 1.2642045454545  23.8991031390133 1.4701704545455  23.7466367713005 1.640625  L 22.8127802690578 2.68465909090912  C 22.63490284006 2.88352272727275  22.4316143497754 2.94034090909088  22.2029147982066 2.85511363636363  C 21.9106875934231 2.76988636363637  21.6248131539614 2.72727272727275  21.3452914798208 3  L 5.48878923766824 3  C 4.65022421524645 2.72727272727275  3.93236173393143 3.0610795454545  3.33520179372181 3.72869318181813  C 2.73804185351264 4.39630681818187  2.43946188340806 5.19886363636363  3 6.13636363636363  L 3 23.8636363636364  C 2.43946188340806 24.8011363636364  2.73804185351264 25.6036931818181  3.33520179372181 26.2713068181819  C 3.93236173393143 26.9389204545455  4.65022421524645 27.2727272727273  5.48878923766824 27  L 21.3452914798208 27  C 22.1838565022417 27.2727272727273  22.9017189835577 26.9389204545455  23.4988789237668 26.2713068181819  C 24.096038863976 25.6036931818181  24.3946188340806 24.8011363636364  24.3946188340806 23.8636363636364  L 24.3946188340806 21.1789772727273  C 24.3946188340806 20.9943181818181  24.4517937219734 20.8380681818181  24.5661434977583 20.7102272727273  L 25.7858744394616 19.3465909090909  C 25.9764573991033 19.1335227272727  26.198804185351 19.0838068181819  26.4529147982066 19.1974431818181  Z M 12.1973094170403 18.4090909090909  L 25.0044843049327 4.09090909090912  L 30.4932735426009 10.2272727272727  L 17.6860986547081 24.5454545454545  L 12.1973094170403 24.5454545454545  L 12.1973094170403 18.4090909090909  Z M 34 5.4545454545455  C 34 6.02272727272725  33.8221225710013 6.50568181818187  33.4663677130047 6.90340909090912  L 31.7130044843052 8.86363636363637  L 26.224215246637 2.72727272727275  L 27.9775784753365 0.767045454545496  C 28.333333333333 0.36931818181813  28.7653213751864 0.170454545454504  29.2735426008967 0.170454545454504  C 29.7817638266069 0.170454545454504  30.2137518684603 0.36931818181813  30.5695067264578 0.767045454545496  L 33.4663677130047 4.00568181818187  C 33.8221225710013 4.40340909090912  34 4.88636363636363  34 5.4545454545455  Z " fill-rule="nonzero" fill="#000000" stroke="none" transform="matrix(1 0 0 1 4887 668 )" />
  </g>
</svg>