<?xml version="1.0" encoding="utf-8"?>
<svg version="1.1" xmlns:xlink="http://www.w3.org/1999/xlink" width="23px" height="23px" xmlns="http://www.w3.org/2000/svg">
  <g transform="matrix(1 0 0 1 -5878 -563 )">
    <path d="M 5889.5 563  C 5895.94 563  5901 568.06  5901 574.5  C 5901 580.94  5895.94 586  5889.5 586  C 5883.06 586  5878 580.94  5878 574.5  C 5878 568.06  5883.06 563  5889.5 563  Z " fill-rule="nonzero" fill="#ffffff" stroke="none" />
    <path d="M 5889.5 563.5  C 5895.66 563.5  5900.5 568.34  5900.5 574.5  C 5900.5 580.66  5895.66 585.5  5889.5 585.5  C 5883.34 585.5  5878.5 580.66  5878.5 574.5  C 5878.5 568.34  5883.34 563.5  5889.5 563.5  Z " stroke-width="1" stroke="#797979" fill="none" />
  </g>
</svg>