<?xml version="1.0" encoding="utf-8"?>
<svg version="1.1" xmlns:xlink="http://www.w3.org/1999/xlink" width="20px" height="20px" xmlns="http://www.w3.org/2000/svg">
  <g transform="matrix(1 0 0 1 -861 -418 )">
    <path d="M 871 418  C 876.6 418  881 422.4  881 428  C 881 433.6  876.6 438  871 438  C 865.4 438  861 433.6  861 428  C 861 422.4  865.4 418  871 418  Z " fill-rule="nonzero" fill="#ffffff" stroke="none" />
    <path d="M 871 418.5  C 876.32 418.5  880.5 422.68  880.5 428  C 880.5 433.32  876.32 437.5  871 437.5  C 865.68 437.5  861.5 433.32  861.5 428  C 861.5 422.68  865.68 418.5  871 418.5  Z " stroke-width="1" stroke="#797979" fill="none" />
  </g>
</svg>