<?xml version="1.0" encoding="utf-8"?>
<svg version="1.1" xmlns:xlink="http://www.w3.org/1999/xlink" width="18px" height="17px" xmlns="http://www.w3.org/2000/svg">
  <g transform="matrix(1 0 0 1 -1015 -424 )">
    <path d="M 12.7265625 10.625  C 12.7265625 10.7209201388889  12.6930803571429 10.8057725694444  12.6261160714286 10.8795572916667  L 11.1595982142857 12.4954427083333  C 11.0926339285714 12.5692274305556  11.015625 12.6061197916667  10.9285714285714 12.6061197916667  C 10.8415178571429 12.6061197916667  10.7645089285714 12.5692274305556  10.6975446428571 12.4954427083333  L 9 10.625  L 7.30245535714286 12.4954427083333  C 7.23549107142857 12.5692274305556  7.15848214285714 12.6061197916667  7.07142857142857 12.6061197916667  C 6.984375 12.6061197916667  6.90736607142857 12.5692274305556  6.84040178571429 12.4954427083333  L 5.37388392857143 10.8795572916667  C 5.30691964285714 10.8057725694444  5.2734375 10.7209201388889  5.2734375 10.625  C 5.2734375 10.5290798611111  5.30691964285714 10.4442274305556  5.37388392857143 10.3704427083333  L 7.07142857142857 8.5  L 5.37388392857143 6.62955729166667  C 5.30691964285714 6.55577256944444  5.2734375 6.47092013888889  5.2734375 6.375  C 5.2734375 6.27907986111111  5.30691964285714 6.19422743055556  5.37388392857143 6.12044270833333  L 6.84040178571429 4.50455729166667  C 6.90736607142857 4.43077256944444  6.984375 4.39388020833333  7.07142857142857 4.39388020833333  C 7.15848214285714 4.39388020833333  7.23549107142857 4.43077256944444  7.30245535714286 4.50455729166667  L 9 6.375  L 10.6975446428571 4.50455729166667  C 10.7645089285714 4.43077256944444  10.8415178571429 4.39388020833333  10.9285714285714 4.39388020833333  C 11.015625 4.39388020833333  11.0926339285714 4.43077256944444  11.1595982142857 4.50455729166667  L 12.6261160714286 6.12044270833333  C 12.6930803571429 6.19422743055556  12.7265625 6.27907986111111  12.7265625 6.375  C 12.7265625 6.47092013888889  12.6930803571429 6.55577256944444  12.6261160714286 6.62955729166667  L 10.9285714285714 8.5  L 12.6261160714286 10.3704427083333  C 12.6930803571429 10.4442274305556  12.7265625 10.5290798611111  12.7265625 10.625  Z M 2.57142857142857 3  L 2.57142857142857 14  L 15.4285714285714 14  L 15.4285714285714 3  L 2.57142857142857 3  Z M 17.5279017857143 0.520182291666667  C 17.8426339285714 0.86697048611111  18 1.28385416666667  18 1.77083333333333  L 18 15.2291666666667  C 18 15.7161458333333  17.8426339285714 16.1330295138889  17.5279017857143 16.4798177083333  C 17.2131696428571 16.8266059027778  16.8348214285714 17  16.3928571428571 17  L 1.60714285714286 17  C 1.16517857142857 17  0.786830357142857 16.8266059027778  0.472098214285714 16.4798177083333  C 0.157366071428571 16.1330295138889  0 15.7161458333333  0 15.2291666666667  L 0 1.77083333333333  C 0 1.28385416666667  0.157366071428571 0.86697048611111  0.472098214285714 0.520182291666667  C 0.786830357142857 0.173394097222221  1.16517857142857 0  1.60714285714286 0  L 16.3928571428571 0  C 16.8348214285714 0  17.2131696428571 0.173394097222221  17.5279017857143 0.520182291666667  Z " fill-rule="nonzero" fill="#000000" stroke="none" transform="matrix(1 0 0 1 1015 424 )" />
  </g>
</svg>