<?xml version="1.0" encoding="utf-8"?>
<svg version="1.1" xmlns:xlink="http://www.w3.org/1999/xlink" width="45px" height="45px" xmlns="http://www.w3.org/2000/svg">
  <g transform="matrix(1 0 0 1 -2096 -1144 )">
    <path d="M 2118.5 1144  C 2131.1 1144  2141 1153.9  2141 1166.5  C 2141 1179.1  2131.1 1189  2118.5 1189  C 2105.9 1189  2096 1179.1  2096 1166.5  C 2096 1153.9  2105.9 1144  2118.5 1144  Z " fill-rule="nonzero" fill="#d9001b" stroke="none" />
    <path d="M 2118.5 1144.5  C 2130.82 1144.5  2140.5 1154.18  2140.5 1166.5  C 2140.5 1178.82  2130.82 1188.5  2118.5 1188.5  C 2106.18 1188.5  2096.5 1178.82  2096.5 1166.5  C 2096.5 1154.18  2106.18 1144.5  2118.5 1144.5  Z " stroke-width="1" stroke="#ffffff" fill="none" />
  </g>
</svg>