<?xml version="1.0" encoding="utf-8"?>
<svg version="1.1" xmlns:xlink="http://www.w3.org/1999/xlink" width="15px" height="19px" xmlns="http://www.w3.org/2000/svg">
  <g transform="matrix(1 0 0 1 -374 -626 )">
    <path d="M 5.35866477272727 7.236328125  C 5.42258522727273 7.310546875  5.45454545454546 7.40538194444444  5.45454545454546 7.52083333333333  L 5.45454545454546 14.6458333333333  C 5.45454545454546 14.7612847222222  5.42258522727273 14.8561197916667  5.35866477272727 14.9303385416667  C 5.29474431818182 15.0045572916667  5.21306818181818 15.0416666666667  5.11363636363636 15.0416666666667  L 4.43181818181818 15.0416666666667  C 4.33238636363636 15.0416666666667  4.25071022727273 15.0045572916667  4.18678977272727 14.9303385416667  C 4.12286931818182 14.8561197916667  4.09090909090909 14.7612847222222  4.09090909090909 14.6458333333333  L 4.09090909090909 7.52083333333333  C 4.09090909090909 7.40538194444444  4.12286931818182 7.310546875  4.18678977272727 7.236328125  C 4.25071022727273 7.162109375  4.33238636363636 7.125  4.43181818181818 7.125  L 5.11363636363636 7.125  C 5.21306818181818 7.125  5.29474431818182 7.162109375  5.35866477272727 7.236328125  Z M 8.0859375 7.236328125  C 8.14985795454546 7.310546875  8.18181818181818 7.40538194444444  8.18181818181818 7.52083333333333  L 8.18181818181818 14.6458333333333  C 8.18181818181818 14.7612847222222  8.14985795454546 14.8561197916667  8.0859375 14.9303385416667  C 8.02201704545454 15.0045572916667  7.94034090909091 15.0416666666667  7.84090909090909 15.0416666666667  L 7.15909090909091 15.0416666666667  C 7.05965909090909 15.0416666666667  6.97798295454546 15.0045572916667  6.9140625 14.9303385416667  C 6.85014204545454 14.8561197916667  6.81818181818182 14.7612847222222  6.81818181818182 14.6458333333333  L 6.81818181818182 7.52083333333333  C 6.81818181818182 7.40538194444444  6.85014204545454 7.310546875  6.9140625 7.236328125  C 6.97798295454546 7.162109375  7.05965909090909 7.125  7.15909090909091 7.125  L 7.84090909090909 7.125  C 7.94034090909091 7.125  8.02201704545454 7.162109375  8.0859375 7.236328125  Z M 10.8132102272727 7.236328125  C 10.8771306818182 7.310546875  10.9090909090909 7.40538194444444  10.9090909090909 7.52083333333333  L 10.9090909090909 14.6458333333333  C 10.9090909090909 14.7612847222222  10.8771306818182 14.8561197916667  10.8132102272727 14.9303385416667  C 10.7492897727273 15.0045572916667  10.6676136363636 15.0416666666667  10.5681818181818 15.0416666666667  L 9.88636363636364 15.0416666666667  C 9.78693181818182 15.0416666666667  9.70525568181818 15.0045572916667  9.64133522727273 14.9303385416667  C 9.57741477272727 14.8561197916667  9.54545454545454 14.7612847222222  9.54545454545454 14.6458333333333  L 9.54545454545454 7.52083333333333  C 9.54545454545454 7.40538194444444  9.57741477272727 7.310546875  9.64133522727273 7.236328125  C 9.70525568181818 7.162109375  9.78693181818182 7.125  9.88636363636364 7.125  L 10.5681818181818 7.125  C 10.6676136363636 7.125  10.7492897727273 7.162109375  10.8132102272727 7.236328125  Z M 12.1981534090909 16.9775390625  C 12.2478693181818 16.8249782986111  12.2727272727273 16.6579861111111  12 16.4765625  L 12 4.75  L 3 4.75  L 3 16.4765625  C 2.72727272727273 16.6579861111111  2.75213068181818 16.8249782986111  2.80184659090909 16.9775390625  C 2.8515625 17.1300998263889  2.90305397727273 17.2414279513889  2.95632102272727 17.3115234375  C 3.00958806818182 17.3816189236111  3.046875 17.4166666666667  3.06818181818182 17.4166666666667  L 11.9318181818182 17.4166666666667  C 11.953125 17.4166666666667  11.9904119318182 17.3816189236111  12.0436789772727 17.3115234375  C 12.0969460227273 17.2414279513889  12.1484375 17.1300998263889  12.1981534090909 16.9775390625  Z M 5.63565340909091 1.71940104166667  L 5.11363636363636 3.16666666666667  L 9.88636363636364 3.16666666666667  L 9.375 1.71940104166667  C 9.32528409090909 1.64518229166667  9.26491477272727 1.59982638888889  9.19389204545454 1.58333333333333  L 5.81676136363636 1.58333333333333  C 5.74573863636364 1.59982638888889  5.68536931818182 1.64518229166667  5.63565340909091 1.71940104166667  Z M 14.9041193181818 3.27799479166667  C 14.9680397727273 3.35221354166667  15 3.44704861111111  15 3.5625  L 15 4.35416666666667  C 15 4.46961805555555  14.9680397727273 4.564453125  14.9041193181818 4.638671875  C 14.8401988636364 4.712890625  14.7585227272727 4.75  14.6590909090909 4.75  L 13.6363636363636 4.75  L 13.6363636363636 16.4765625  C 13.6363636363636 17.1610243055556  13.4694602272727 17.7527126736111  13.1356534090909 18.2516276041667  C 12.8018465909091 18.7505425347222  12.4005681818182 19  11.9318181818182 19  L 3.06818181818182 19  C 2.59943181818182 19  2.19815340909091 18.7587890625  1.86434659090909 18.2763671875  C 1.53053977272727 17.7939453125  1.36363636363636 17.2105034722222  1.36363636363636 16.5260416666667  L 1.36363636363636 4.75  L 0.340909090909091 4.75  C 0.241477272727273 4.75  0.159801136363636 4.712890625  0.0958806818181818 4.638671875  C 0.0319602272727273 4.564453125  0 4.46961805555555  0 4.35416666666667  L 0 3.5625  C 0 3.44704861111111  0.0319602272727273 3.35221354166667  0.0958806818181818 3.27799479166667  C 0.159801136363636 3.20377604166667  0.241477272727273 3.16666666666667  0.340909090909091 3.16666666666667  L 3.6328125 3.16666666666667  L 4.37855113636364 1.10091145833333  C 4.48508522727273 0.795789930555554  4.67684659090909 0.536024305555554  4.95383522727273 0.321614583333334  C 5.23082386363636 0.10720486111111  5.51136363636364 0  5.79545454545454 0  L 9.20454545454546 0  C 9.48863636363637 0  9.76917613636364 0.10720486111111  10.0461647727273 0.321614583333334  C 10.3231534090909 0.536024305555554  10.5149147727273 0.795789930555554  10.6214488636364 1.10091145833333  L 11.3671875 3.16666666666667  L 14.6590909090909 3.16666666666667  C 14.7585227272727 3.16666666666667  14.8401988636364 3.20377604166667  14.9041193181818 3.27799479166667  Z " fill-rule="nonzero" fill="#000000" stroke="none" transform="matrix(1 0 0 1 374 626 )" />
  </g>
</svg>