<?xml version="1.0" encoding="utf-8"?>
<svg version="1.1" xmlns:xlink="http://www.w3.org/1999/xlink" width="33px" height="22px" xmlns="http://www.w3.org/2000/svg">
  <g transform="matrix(1 0 0 1 -692 -913 )">
    <path d="M 15.390134529148 16.5  L 16.4260089686099 16.5  L 18.5717488789238 14.6875  L 15.7600896860987 12.3125  L 13.6143497757848 14.125  L 13.6143497757848 15  L 15.390134529148 15  L 15.390134529148 16.5  Z M 24.5465246636771 5.765625  C 24.7561659192825 5.58854166666666  24.762331838565 5.41666666666666  24.5650224215247 5.25  C 24.3677130044843 5.08333333333333  24.1642376681614 5.08854166666666  23.9545964125561 5.265625  L 17.4803811659193 10.734375  C 17.2707399103139 10.9114583333333  17.2645739910314 11.0833333333333  17.4618834080717 11.25  C 17.6591928251121 11.4166666666667  17.862668161435 11.4114583333333  18.0723094170404 11.234375  L 24.5465246636771 5.765625  Z M 25.6748878923767 14.078125  C 25.9215246636771 14.1614583333333  26.0448430493274 14.3125  26.0448430493274 14.53125  L 26.0448430493274 17.5  C 26.0448430493274 18.7395833333333  25.5238228699552 19.7994791666667  24.4817825112108 20.6796875  C 23.4397421524664 21.5598958333333  22.1849775784753 22  20.7174887892377 22  L 5.32735426008969 22  C 3.85986547085202 22  2.60510089686099 21.5598958333333  1.56306053811659 20.6796875  C 0.521020179372197 19.7994791666667  0 18.7395833333333  0 17.5  L 0 4.5  C 0 3.26041666666666  0.521020179372197 2.20052083333333  1.56306053811659 1.3203125  C 2.60510089686099 0.440104166666665  3.85986547085202 0  5.32735426008969 0  L 20.7174887892377 0  C 21.4943946188341 0  22.2158071748879 0.130208333333332  22.8817264573991 0.390624999999999  C 23.0667040358744 0.463541666666665  23.1776905829596 0.583333333333333  23.2146860986547 0.749999999999999  C 23.2516816143498 0.927083333333333  23.1961883408072 1.078125  23.0482062780269 1.203125  L 22.1418161434978 1.96875  C 21.9691704035874 2.11458333333333  21.7718609865471 2.15625  21.5498878923767 2.09375  C 21.2662556053812 2.03125  20.9887892376682 2  20.7174887892377 2  L 5.32735426008969 2  C 4.51345291479821 2  3.81670403587444 2.24479166666666  3.23710762331839 2.734375  C 2.65751121076233 3.22395833333333  2.36771300448431 3.8125  3 4.5  L 3 17.5  C 2.36771300448431 18.1875  2.65751121076233 18.7760416666667  3.23710762331839 19.265625  C 3.81670403587444 19.7552083333333  4.51345291479821 20  5.32735426008969 20  L 20.7174887892377 20  C 21.5313901345291 20  22.2281390134529 19.7552083333333  22.807735426009 19.265625  C 23.387331838565 18.7760416666667  23.677130044843 18.1875  23.677130044843 17.5  L 23.677130044843 15.53125  C 23.677130044843 15.3958333333333  23.7326233183857 15.28125  23.8436098654709 15.1875  L 25.027466367713 14.1875  C 25.2124439461883 14.03125  25.4282511210762 13.9947916666667  25.6748878923767 14.078125  Z M 11.8385650224215 13.5  L 24.2690582959641 3  L 29.5964125560538 7.5  L 17.1659192825112 18  L 11.8385650224215 18  L 11.8385650224215 13.5  Z M 33 4  C 33 4.41666666666667  32.8273542600897 4.77083333333333  32.4820627802691 5.0625  L 30.780269058296 6.5  L 25.4529147982063 2  L 27.1547085201794 0.562499999999999  C 27.5 0.270833333333331  27.9192825112108 0.125000000000001  28.4125560538117 0.125000000000001  C 28.9058295964126 0.125000000000001  29.3251121076233 0.270833333333331  29.6704035874439 0.562499999999999  L 32.4820627802691 2.9375  C 32.8273542600897 3.22916666666666  33 3.58333333333333  33 4  Z " fill-rule="nonzero" fill="#000000" stroke="none" transform="matrix(1 0 0 1 692 913 )" />
  </g>
</svg>