<svg t="1569220564287" class="icon" viewBox="0 0 1024 1024" version="1.1" xmlns="http://www.w3.org/2000/svg" p-id="9422" width="64" height="64"><path d="M512 65.2c-247.4 0-448 200.6-448 448s200.6 448 448 448 448-200.6 448-448-200.6-448-448-448z m0 864c-229.4 0-416-186.6-416-416s186.6-416 416-416 416 186.6 416 416-186.6 416-416 416z m0-364c44.2 0 80-35.8 80-80v-160c0-44.2-35.8-80-80-80s-80 35.8-80 80v160c0 44.2 35.8 80 80 80z m144-112c-8.8 0-16 7.2-16 16 0 70.6-57.4 128-128 128s-128-57.4-128-128c0-8.8-7.2-16-16-16s-16 7.2-16 16c0 83 63.2 151.2 144 159.2v120.8h-64c-8.8 0-16 7.2-16 16s7.2 16 16 16h160c8.8 0 16-7.2 16-16s-7.2-16-16-16h-64V628.4c80.9-8 144-76.2 144-159.2 0-8.8-7.2-16-16-16z" p-id="9423"></path></svg>