<?xml version="1.0" encoding="utf-8"?>
<svg version="1.1" xmlns:xlink="http://www.w3.org/1999/xlink" width="12px" height="12px" viewBox="966 262  12 12" xmlns="http://www.w3.org/2000/svg">
  <path d="M 972 262  C 975.36 262  978 264.64  978 268  C 978 271.36  975.36 274  972 274  C 968.64 274  966 271.36  966 268  C 966 264.64  968.64 262  972 262  Z " fill-rule="nonzero" fill="#ffffff" stroke="none" />
  <path d="M 972 262.5  C 975.08 262.5  977.5 264.92  977.5 268  C 977.5 271.08  975.08 273.5  972 273.5  C 968.92 273.5  966.5 271.08  966.5 268  C 966.5 264.92  968.92 262.5  972 262.5  Z " stroke-width="1" stroke="#797979" fill="none" />
  <path d="M 972 271  C 970.32 271  969 269.68  969 268  C 969 266.32  970.32 265  972 265  C 973.68 265  975 266.32  975 268  C 975 269.68  973.68 271  972 271  " fill-rule="nonzero" fill="#797979" stroke="none" />
</svg>