<?xml version="1.0" encoding="utf-8"?>
<svg version="1.1" xmlns:xlink="http://www.w3.org/1999/xlink" width="12px" height="12px" viewBox="1039 262  12 12" xmlns="http://www.w3.org/2000/svg">
  <path d="M 1045 262  C 1048.36 262  1051 264.64  1051 268  C 1051 271.36  1048.36 274  1045 274  C 1041.64 274  1039 271.36  1039 268  C 1039 264.64  1041.64 262  1045 262  Z " fill-rule="nonzero" fill="#ffffff" stroke="none" />
  <path d="M 1045 262.5  C 1048.08 262.5  1050.5 264.92  1050.5 268  C 1050.5 271.08  1048.08 273.5  1045 273.5  C 1041.92 273.5  1039.5 271.08  1039.5 268  C 1039.5 264.92  1041.92 262.5  1045 262.5  Z " stroke-width="1" stroke="#797979" fill="none" />
  <path d="M 1045 271  C 1043.32 271  1042 269.68  1042 268  C 1042 266.32  1043.32 265  1045 265  C 1046.68 265  1048 266.32  1048 268  C 1048 269.68  1046.68 271  1045 271  " fill-rule="nonzero" fill="#797979" stroke="none" />
</svg>