<?xml version="1.0" encoding="utf-8"?>
<svg version="1.1" xmlns:xlink="http://www.w3.org/1999/xlink" width="29px" height="33px" xmlns="http://www.w3.org/2000/svg">
  <g transform="matrix(1 0 0 1 -756 -315 )">
    <path d="M 17.78515625 20.23828125  C 19.3130008012821 18.4996995192308  20.0769230769231 16.4074519230769  20.0769230769231 13.9615384615385  C 20.0769230769231 11.515625  19.3130008012821 9.42337740384615  17.78515625 7.68479567307692  C 16.2573116987179 5.94621394230769  14.4186698717949 5.07692307692308  12.2692307692308 5.07692307692308  C 10.1197916666667 5.07692307692308  8.28114983974359 5.94621394230769  6.75330528846154 7.68479567307692  C 5.22546073717949 9.42337740384615  4.46153846153846 11.515625  4.46153846153846 13.9615384615385  C 4.46153846153846 16.4074519230769  5.22546073717949 18.4996995192308  6.75330528846154 20.23828125  C 8.28114983974359 21.9768629807692  10.1197916666667 22.8461538461538  12.2692307692308 22.8461538461538  C 14.4186698717949 22.8461538461538  16.2573116987179 21.9768629807692  17.78515625 20.23828125  Z M 28.3551682692308 28.6766826923077  C 28.7850560897436 29.1658653846154  29 29.7608173076923  29 30.4615384615385  C 29 31.1490384615385  28.7792467948718 31.7439903846154  28.3377403846154 32.2463942307692  C 27.896233974359 32.7487980769231  27.3733974358974 33  26.7692307692308 33  C 26.1418269230769 33  25.6189903846154 32.7487980769231  25.2007211538462 32.2463942307692  L 19.2229567307692 25.4639423076923  C 17.1432291666667 27.1033653846154  14.8253205128205 27.9230769230769  12.2692307692308 27.9230769230769  C 10.6077724358974 27.9230769230769  9.01893028846154 27.5561899038462  7.50270432692308 26.8224158653846  C 5.98647836538462 26.0886418269231  4.67938701923077 25.0970552884615  3.58143028846154 23.84765625  C 2.48347355769231 22.5982572115385  1.61207932692308 21.1108774038462  0.967247596153846 19.3855168269231  C 0.322415865384615 17.66015625  0 15.8521634615385  0 13.9615384615385  C 0 12.0709134615385  0.322415865384615 10.2629206730769  0.967247596153846 8.53756009615384  C 1.61207932692308 6.81219951923077  2.48347355769231 5.32481971153846  3.58143028846154 4.07542067307692  C 4.67938701923077 2.82602163461539  5.98647836538462 1.83443509615385  7.50270432692308 1.10066105769231  C 9.01893028846154 0.366887019230768  10.6077724358974 0  12.2692307692308 0  C 13.9306891025641 0  15.51953125 0.366887019230768  17.0357572115385 1.10066105769231  C 18.5519831730769 1.83443509615385  19.8590745192308 2.82602163461539  20.95703125 4.07542067307692  C 22.0549879807692 5.32481971153846  22.9263822115385 6.81219951923077  23.5712139423077 8.53756009615384  C 24.2160456730769 10.2629206730769  24.5384615384615 12.0709134615385  24.5384615384615 13.9615384615385  C 24.5384615384615 16.8701923076923  23.818108974359 19.5078125  22.3774038461538 21.8743990384615  L 28.3551682692308 28.6766826923077  Z " fill-rule="nonzero" fill="#000000" stroke="none" transform="matrix(1 0 0 1 756 315 )" />
  </g>
</svg>