<?xml version="1.0" encoding="utf-8"?>
<svg version="1.1" xmlns:xlink="http://www.w3.org/1999/xlink" width="30px" height="33px" xmlns="http://www.w3.org/2000/svg">
  <g transform="matrix(1 0 0 1 -2565 -453 )">
    <path d="M 2.30769230769238 25.0388198757764  L 2.30769230769238 30.2795031055901  L 7.5 30.2795031055901  L 7.5 25.0388198757764  L 2.30769230769238 25.0388198757764  Z M 8.65384615384619 25.0388198757764  L 8.65384615384619 30.2795031055901  L 14.4230769230767 30.2795031055901  L 14.4230769230767 25.0388198757764  L 8.65384615384619 25.0388198757764  Z M 2.30769230769238 18.0512422360248  L 2.30769230769238 23.8742236024845  L 7.5 23.8742236024845  L 7.5 18.0512422360248  L 2.30769230769238 18.0512422360248  Z M 8.65384615384619 18.0512422360248  L 8.65384615384619 23.8742236024845  L 14.4230769230767 23.8742236024845  L 14.4230769230767 18.0512422360248  L 8.65384615384619 18.0512422360248  Z M 2.30769230769238 11.6459627329193  L 2.30769230769238 16.8866459627329  L 7.5 16.8866459627329  L 7.5 11.6459627329193  L 2.30769230769238 11.6459627329193  Z M 15.5769230769233 25.0388198757764  L 15.5769230769233 30.2795031055901  L 21.3461538461538 30.2795031055901  L 21.3461538461538 25.0388198757764  L 15.5769230769233 25.0388198757764  Z M 8.65384615384619 11.6459627329193  L 8.65384615384619 16.8866459627329  L 14.4230769230767 16.8866459627329  L 14.4230769230767 11.6459627329193  L 8.65384615384619 11.6459627329193  Z M 22.5 25.0388198757764  L 22.5 30.2795031055901  L 27.6923076923076 30.2795031055901  L 27.6923076923076 25.0388198757764  L 22.5 25.0388198757764  Z M 15.5769230769233 18.0512422360248  L 15.5769230769233 23.8742236024845  L 21.3461538461538 23.8742236024845  L 21.3461538461538 18.0512422360248  L 15.5769230769233 18.0512422360248  Z M 9.05949519230762 8.56160229037272  C 9.17367788461524 8.44635578416154  9.23076923076951 8.30987965838506  9.23076923076951 8.1521739130435  L 9.23076923076951 2.91149068322977  C 9.23076923076951 2.75378493788816  9.17367788461524 2.61730881211179  9.05949519230762 2.50206230590061  C 8.94531250000045 2.38681579968943  8.81009615384619 2.32919254658384  8.65384615384619 2.32919254658384  L 7.5 2.32919254658384  C 7.34374999999955 2.32919254658384  7.20853365384619 2.38681579968943  7.09435096153857 2.50206230590061  C 6.98016826923094 2.61730881211179  6.92307692307668 2.75378493788816  6.92307692307668 2.91149068322977  L 6.92307692307668 8.1521739130435  C 6.92307692307668 8.30987965838506  6.98016826923094 8.44635578416154  7.09435096153857 8.56160229037272  C 7.20853365384619 8.6768487965839  7.34374999999955 8.73447204968949  7.5 8.73447204968949  L 8.65384615384619 8.73447204968949  C 8.81009615384619 8.73447204968949  8.94531250000045 8.6768487965839  9.05949519230762 8.56160229037272  Z M 22.5 18.0512422360248  L 22.5 23.8742236024845  L 27.6923076923076 23.8742236024845  L 27.6923076923076 18.0512422360248  L 22.5 18.0512422360248  Z M 15.5769230769233 11.6459627329193  L 15.5769230769233 16.8866459627329  L 21.3461538461538 16.8866459627329  L 21.3461538461538 11.6459627329193  L 15.5769230769233 11.6459627329193  Z M 22.5 11.6459627329193  L 22.5 16.8866459627329  L 27.6923076923076 16.8866459627329  L 27.6923076923076 11.6459627329193  L 22.5 11.6459627329193  Z M 22.9056490384614 8.56160229037272  C 23.0198317307691 8.44635578416154  23.0769230769233 8.30987965838506  23.0769230769233 8.1521739130435  L 23.0769230769233 2.91149068322977  C 23.0769230769233 2.75378493788816  23.0198317307691 2.61730881211179  22.9056490384614 2.50206230590061  C 22.7914663461538 2.38681579968943  22.6562500000005 2.32919254658384  22.5 2.32919254658384  L 21.3461538461538 2.32919254658384  C 21.1899038461538 2.32919254658384  21.0546874999995 2.38681579968943  20.9405048076924 2.50206230590061  C 20.8263221153848 2.61730881211179  20.7692307692305 2.75378493788816  20.7692307692305 2.91149068322977  L 20.7692307692305 8.1521739130435  C 20.7692307692305 8.30987965838506  20.8263221153848 8.44635578416154  20.9405048076924 8.56160229037272  C 21.0546874999995 8.6768487965839  21.1899038461538 8.73447204968949  21.3461538461538 8.73447204968949  L 22.5 8.73447204968949  C 22.6562500000005 8.73447204968949  22.7914663461538 8.6768487965839  22.9056490384614 8.56160229037272  Z M 29.3149038461538 5.34986413043481  C 29.7716346153848 5.81085015527952  30 6.35675465838511  30 6.98757763975158  L 30 30.2795031055901  C 30 30.9103260869566  29.7716346153848 31.4562305900622  29.3149038461538 31.9172166149069  C 28.8581730769233 32.3782026397516  28.3173076923076 32.608695652174  27.6923076923076 32  L 2.30769230769238 32  C 1.68269230769238 32.608695652174  1.14182692307668 32.3782026397516  0.685096153846189 31.9172166149069  C 0.228365384615245 31.4562305900622  0 30.9103260869566  0 30.2795031055901  L 0 6.98757763975158  C 0 6.35675465838511  0.228365384615245 5.81085015527952  0.685096153846189 5.34986413043481  C 1.14182692307668 4.88887810559009  1.68269230769238 4.65838509316774  2.30769230769238 4.65838509316774  L 4.6153846153843 4.65838509316774  L 4.6153846153843 2.91149068322977  C 4.6153846153843 2.11083074534162  4.89783653846143 1.42541731366464  5.4627403846157 0.855250388198726  C 6.02764423076906 0.285083462732871  6.70673076923049 0  7.5 0  L 8.65384615384619 0  C 9.4471153846157 0  10.1262019230771 0.285083462732871  10.6911057692305 0.855250388198726  C 11.2560096153848 1.42541731366464  11.5384615384614 2.11083074534162  11.5384615384614 2.91149068322977  L 11.5384615384614 4.65838509316774  L 18.4615384615386 4.65838509316774  L 18.4615384615386 2.91149068322977  C 18.4615384615386 2.11083074534162  18.7439903846152 1.42541731366464  19.3088942307695 0.855250388198726  C 19.8737980769229 0.285083462732871  20.5528846153843 0  21.3461538461538 0  L 22.5 0  C 23.2932692307695 0  23.9723557692309 0.285083462732871  24.5372596153843 0.855250388198726  C 25.1021634615386 1.42541731366464  25.3846153846157 2.11083074534162  25.3846153846157 2.91149068322977  L 25.3846153846157 4.65838509316774  L 27.6923076923076 4.65838509316774  C 28.3173076923076 4.65838509316774  28.8581730769233 4.88887810559009  29.3149038461538 5.34986413043481  Z " fill-rule="nonzero" fill="#000000" stroke="none" transform="matrix(1 0 0 1 2565 453 )" />
  </g>
</svg>