<?xml version="1.0" encoding="utf-8"?>
<svg version="1.1" xmlns:xlink="http://www.w3.org/1999/xlink" width="30px" height="30px" xmlns="http://www.w3.org/2000/svg">
  <g transform="matrix(1 0 0 1 -1018 -770 )">
    <path d="M 1033 770  C 1041.4 770  1048 776.6  1048 785  C 1048 793.4  1041.4 800  1033 800  C 1024.6 800  1018 793.4  1018 785  C 1018 776.6  1024.6 770  1033 770  Z " fill-rule="nonzero" fill="#ffffff" stroke="none" />
    <path d="M 1033 770.5  C 1041.12 770.5  1047.5 776.88  1047.5 785  C 1047.5 793.12  1041.12 799.5  1033 799.5  C 1024.88 799.5  1018.5 793.12  1018.5 785  C 1018.5 776.88  1024.88 770.5  1033 770.5  Z " stroke-width="1" stroke="#797979" fill="none" />
  </g>
</svg>