<?xml version="1.0" encoding="utf-8"?>
<svg version="1.1" xmlns:xlink="http://www.w3.org/1999/xlink" width="22px" height="25px" xmlns="http://www.w3.org/2000/svg">
  <g transform="matrix(1 0 0 1 -544 -298 )">
    <path d="M 13.4921875 15.33203125  C 14.6512419871795 14.0149238782051  15.2307692307692 12.4298878205128  15.2307692307692 10.5769230769231  C 15.2307692307692 8.72395833333333  14.6512419871795 7.13892227564102  13.4921875 5.82181490384615  C 12.3331330128205 4.50470753205128  10.9383012820513 3.84615384615385  9.30769230769231 3.84615384615385  C 7.67708333333333 3.84615384615385  6.2822516025641 4.50470753205128  5.12319711538461 5.82181490384615  C 3.96414262820513 7.13892227564102  3.38461538461539 8.72395833333333  3.38461538461539 10.5769230769231  C 3.38461538461539 12.4298878205128  3.96414262820513 14.0149238782051  5.12319711538461 15.33203125  C 6.2822516025641 16.6491386217949  7.67708333333333 17.3076923076923  9.30769230769231 17.3076923076923  C 10.9383012820513 17.3076923076923  12.3331330128205 16.6491386217949  13.4921875 15.33203125  Z M 21.5108173076923 21.7247596153846  C 21.8369391025641 22.0953525641026  22 22.5460737179487  22 23.0769230769231  C 22 23.5977564102564  21.8325320512821 24.0484775641026  21.4975961538462 24.4290865384615  C 21.1626602564103 24.8096955128205  20.7660256410256 25  20.3076923076923 25  C 19.8317307692308 25  19.4350961538462 24.8096955128205  19.1177884615385 24.4290865384615  L 14.5829326923077 19.2908653846154  C 13.0052083333333 20.5328525641026  11.2467948717949 21.1538461538462  9.30769230769231 21.1538461538462  C 8.04727564102564 21.1538461538462  6.84194711538461 20.8759014423077  5.69170673076923 20.3200120192308  C 4.54146634615385 19.7641225961538  3.54987980769231 19.0129206730769  2.71694711538462 18.06640625  C 1.88401442307692 17.1198918269231  1.22295673076923 15.9930889423077  0.733774038461538 14.6859975961538  C 0.244591346153846 13.37890625  0 12.0092147435897  0 10.5769230769231  C 0 9.14463141025641  0.244591346153846 7.77493990384615  0.733774038461538 6.46784855769231  C 1.22295673076923 5.16075721153846  1.88401442307692 4.03395432692308  2.71694711538462 3.08743990384615  C 3.54987980769231 2.14092548076923  4.54146634615385 1.38972355769231  5.69170673076923 0.833834134615385  C 6.84194711538461 0.277944711538461  8.04727564102564 0  9.30769230769231 0  C 10.568108974359 0  11.7734375 0.277944711538461  12.9236778846154 0.833834134615385  C 14.0739182692308 1.38972355769231  15.0655048076923 2.14092548076923  15.8984375 3.08743990384615  C 16.7313701923077 4.03395432692308  17.3924278846154 5.16075721153846  17.8816105769231 6.46784855769231  C 18.3707932692308 7.77493990384615  18.6153846153846 9.14463141025641  18.6153846153846 10.5769230769231  C 18.6153846153846 12.7804487179487  18.0689102564103 14.7786458333333  16.9759615384615 16.5715144230769  L 21.5108173076923 21.7247596153846  Z " fill-rule="nonzero" fill="#000000" stroke="none" transform="matrix(1 0 0 1 544 298 )" />
  </g>
</svg>