<?xml version="1.0" encoding="utf-8"?>
<svg version="1.1" xmlns:xlink="http://www.w3.org/1999/xlink" width="25px" height="25px" xmlns="http://www.w3.org/2000/svg">
  <g transform="matrix(1 0 0 1 -657 -770 )">
    <path d="M 669.5 770  C 676.5 770  682 775.5  682 782.5  C 682 789.5  676.5 795  669.5 795  C 662.5 795  657 789.5  657 782.5  C 657 775.5  662.5 770  669.5 770  Z " fill-rule="nonzero" fill="#d9001b" stroke="none" />
    <path d="M 669.5 770.5  C 676.22 770.5  681.5 775.78  681.5 782.5  C 681.5 789.22  676.22 794.5  669.5 794.5  C 662.78 794.5  657.5 789.22  657.5 782.5  C 657.5 775.78  662.78 770.5  669.5 770.5  Z " stroke-width="1" stroke="#ffffff" fill="none" />
  </g>
</svg>