<?xml version="1.0" encoding="utf-8"?>
<svg version="1.1" xmlns:xlink="http://www.w3.org/1999/xlink" width="25px" height="24px" xmlns="http://www.w3.org/2000/svg">
  <g transform="matrix(1 0 0 1 -1372 -815 )">
    <path d="M 1.92307692307692 18.4285714285714  L 1.92307692307692 22.2857142857143  L 6.25 22.2857142857143  L 6.25 18.4285714285714  L 1.92307692307692 18.4285714285714  Z M 7.21153846153846 18.4285714285714  L 7.21153846153846 22.2857142857143  L 12.0192307692308 22.2857142857143  L 12.0192307692308 18.4285714285714  L 7.21153846153846 18.4285714285714  Z M 1.92307692307692 13.2857142857143  L 1.92307692307692 17.5714285714286  L 6.25 17.5714285714286  L 6.25 13.2857142857143  L 1.92307692307692 13.2857142857143  Z M 7.21153846153846 13.2857142857143  L 7.21153846153846 17.5714285714286  L 12.0192307692308 17.5714285714286  L 12.0192307692308 13.2857142857143  L 7.21153846153846 13.2857142857143  Z M 1.92307692307692 8.57142857142857  L 1.92307692307692 12.4285714285714  L 6.25 12.4285714285714  L 6.25 8.57142857142857  L 1.92307692307692 8.57142857142857  Z M 12.9807692307692 18.4285714285714  L 12.9807692307692 22.2857142857143  L 17.7884615384615 22.2857142857143  L 17.7884615384615 18.4285714285714  L 12.9807692307692 18.4285714285714  Z M 7.21153846153846 8.57142857142857  L 7.21153846153846 12.4285714285714  L 12.0192307692308 12.4285714285714  L 12.0192307692308 8.57142857142857  L 7.21153846153846 8.57142857142857  Z M 18.75 18.4285714285714  L 18.75 22.2857142857143  L 23.0769230769231 22.2857142857143  L 23.0769230769231 18.4285714285714  L 18.75 18.4285714285714  Z M 12.9807692307692 13.2857142857143  L 12.9807692307692 17.5714285714286  L 17.7884615384615 17.5714285714286  L 17.7884615384615 13.2857142857143  L 12.9807692307692 13.2857142857143  Z M 7.54957932692308 6.30133928571429  C 7.64473157051282 6.21651785714286  7.69230769230769 6.11607142857143  7.69230769230769 6  L 7.69230769230769 2.14285714285714  C 7.69230769230769 2.02678571428571  7.64473157051282 1.92633928571428  7.54957932692308 1.84151785714286  C 7.45442708333333 1.75669642857143  7.3417467948718 1.71428571428571  7.21153846153846 1.71428571428571  L 6.25 1.71428571428571  C 6.11979166666667 1.71428571428571  6.00711137820513 1.75669642857143  5.91195913461539 1.84151785714286  C 5.81680689102564 1.92633928571428  5.76923076923077 2.02678571428571  5.76923076923077 2.14285714285714  L 5.76923076923077 6  C 5.76923076923077 6.11607142857143  5.81680689102564 6.21651785714286  5.91195913461539 6.30133928571429  C 6.00711137820513 6.38616071428571  6.11979166666667 6.42857142857143  6.25 6.42857142857143  L 7.21153846153846 6.42857142857143  C 7.3417467948718 6.42857142857143  7.45442708333333 6.38616071428571  7.54957932692308 6.30133928571429  Z M 18.75 13.2857142857143  L 18.75 17.5714285714286  L 23.0769230769231 17.5714285714286  L 23.0769230769231 13.2857142857143  L 18.75 13.2857142857143  Z M 12.9807692307692 8.57142857142857  L 12.9807692307692 12.4285714285714  L 17.7884615384615 12.4285714285714  L 17.7884615384615 8.57142857142857  L 12.9807692307692 8.57142857142857  Z M 18.75 8.57142857142857  L 18.75 12.4285714285714  L 23.0769230769231 12.4285714285714  L 23.0769230769231 8.57142857142857  L 18.75 8.57142857142857  Z M 19.0880408653846 6.30133928571429  C 19.1831931089744 6.21651785714286  19.2307692307692 6.11607142857143  19.2307692307692 6  L 19.2307692307692 2.14285714285714  C 19.2307692307692 2.02678571428571  19.1831931089744 1.92633928571428  19.0880408653846 1.84151785714286  C 18.9928886217949 1.75669642857143  18.8802083333333 1.71428571428571  18.75 1.71428571428571  L 17.7884615384615 1.71428571428571  C 17.6582532051282 1.71428571428571  17.5455729166667 1.75669642857143  17.4504206730769 1.84151785714286  C 17.3552684294872 1.92633928571428  17.3076923076923 2.02678571428571  17.3076923076923 2.14285714285714  L 17.3076923076923 6  C 17.3076923076923 6.11607142857143  17.3552684294872 6.21651785714286  17.4504206730769 6.30133928571429  C 17.5455729166667 6.38616071428571  17.6582532051282 6.42857142857143  17.7884615384615 6.42857142857143  L 18.75 6.42857142857143  C 18.8802083333333 6.42857142857143  18.9928886217949 6.38616071428571  19.0880408653846 6.30133928571429  Z M 24.4290865384615 3.9375  C 24.8096955128205 4.27678571428571  25 4.67857142857143  25 5.14285714285714  L 25 22.2857142857143  C 25 22.75  24.8096955128205 23.1517857142857  24.4290865384615 23.4910714285714  C 24.0484775641026 23.8303571428571  23.5977564102564 24  23.0769230769231 24  L 1.92307692307692 24  C 1.40224358974359 24  0.951522435897436 23.8303571428571  0.570913461538461 23.4910714285714  C 0.190304487179487 23.1517857142857  0 22.75  0 22.2857142857143  L 0 5.14285714285714  C 0 4.67857142857143  0.190304487179487 4.27678571428571  0.570913461538461 3.9375  C 0.951522435897436 3.59821428571428  1.40224358974359 3.42857142857143  1.92307692307692 3.42857142857143  L 3.84615384615385 3.42857142857143  L 3.84615384615385 2.14285714285714  C 3.84615384615385 1.55357142857143  4.08153044871795 1.04910714285714  4.55228365384615 0.629464285714286  C 5.02303685897436 0.209821428571429  5.58894230769231 0  6.25 0  L 7.21153846153846 0  C 7.87259615384615 0  8.4385016025641 0.209821428571429  8.90925480769231 0.629464285714286  C 9.38000801282051 1.04910714285714  9.61538461538462 1.55357142857143  9.61538461538462 2.14285714285714  L 9.61538461538462 3.42857142857143  L 15.3846153846154 3.42857142857143  L 15.3846153846154 2.14285714285714  C 15.3846153846154 1.55357142857143  15.6199919871795 1.04910714285714  16.0907451923077 0.629464285714286  C 16.5614983974359 0.209821428571429  17.1274038461538 0  17.7884615384615 0  L 18.75 0  C 19.4110576923077 0  19.9769631410256 0.209821428571429  20.4477163461538 0.629464285714286  C 20.9184695512821 1.04910714285714  21.1538461538462 1.55357142857143  21.1538461538462 2.14285714285714  L 21.1538461538462 3.42857142857143  L 23.0769230769231 3.42857142857143  C 23.5977564102564 3.42857142857143  24.0484775641026 3.59821428571428  24.4290865384615 3.9375  Z " fill-rule="nonzero" fill="#000000" stroke="none" transform="matrix(1 0 0 1 1372 815 )" />
  </g>
</svg>