<?xml version="1.0" encoding="utf-8"?>
<svg version="1.1" xmlns:xlink="http://www.w3.org/1999/xlink" width="35px" height="35px" xmlns="http://www.w3.org/2000/svg">
  <g transform="matrix(1 0 0 1 -241 -637 )">
    <path d="M 258.5 637  C 268.3 637  276 644.7  276 654.5  C 276 664.3  268.3 672  258.5 672  C 248.7 672  241 664.3  241 654.5  C 241 644.7  248.7 637  258.5 637  Z " fill-rule="nonzero" fill="#ff0000" stroke="none" />
    <path d="M 258.5 637.5  C 268.02 637.5  275.5 644.98  275.5 654.5  C 275.5 664.02  268.02 671.5  258.5 671.5  C 248.98 671.5  241.5 664.02  241.5 654.5  C 241.5 644.98  248.98 637.5  258.5 637.5  Z " stroke-width="1" stroke="#ff0000" fill="none" />
  </g>
</svg>