<?xml version="1.0" encoding="utf-8"?>
<svg version="1.1" xmlns:xlink="http://www.w3.org/1999/xlink" width="22px" height="18px" xmlns="http://www.w3.org/2000/svg">
  <g transform="matrix(1 0 0 1 -2477 -3551 )">
    <path d="M 14.8426339285714 15.375  C 15.6201636904762 15.125  16.3035714285714 15  16.8928571428571 15  L 17.2857142857143 15  L 17.2857142857143 7.5  L 16.8928571428571 7.5  C 16.6063988095238 7.5  16.3301711309524 7.453125  16.0641741071429 7.359375  C 15.7981770833333 7.265625  15.5424107142857 7.12109375  15.296875 6.92578125  C 15.0513392857143 6.73046875  14.8467261904762 6.55078125  14.6830357142857 6.38671875  C 14.5193452380952 6.22265625  14.3188244047619 6.01171875  14.0814732142857 5.75390625  C 14.0159970238095 5.68359375  13.9668898809524 5.62890625  13.9341517857143 5.58984375  C 13.3448660714286 4.95703125  12.8865327380952 4.390625  12.5591517857143 3.890625  C 12.444568452381 3.71875  12.2890625 3.453125  12.0926339285714 3.09375  C 12.0844494047619 3.0703125  12.0414806547619 2.982421875  11.9637276785714 2.830078125  C 11.885974702381 2.677734375  11.8102678571429 2.537109375  11.7366071428571 2.408203125  C 11.6629464285714 2.279296875  11.5811011904762 2.140625  11.4910714285714 1.9921875  C 11.4010416666667 1.84375  11.3130580357143 1.724609375  11.2271205357143 1.634765625  C 11.1411830357143 1.544921875  11.0654761904762 1.5  11 1.5  C 10.4188988095238 1.5  9.94624255952381 1.619140625  9.58203125 1.857421875  C 9.21781994047619 2.095703125  9.03571428571428 2.4765625  9.03571428571428 3  C 9.03571428571428 3.3359375  9.09709821428572 3.666015625  9.21986607142857 3.990234375  C 9.34263392857143 4.314453125  9.47767857142857 4.580078125  9.625 4.787109375  C 9.77232142857143 4.994140625  9.90736607142857 5.208984375  10.0301339285714 5.431640625  C 10.1529017857143 5.654296875  10.2142857142857 5.84375  10.2142857142857 6  L 3.14285714285714 6  C 2.73363095238095 6  2.36941964285714 6.150390625  2.05022321428571 6.451171875  C 1.73102678571429 6.751953125  1.57142857142857 7.1015625  1.57142857142857 7.5  C 1.57142857142857 7.90625  1.72693452380952 8.2578125  2.03794642857143 8.5546875  C 2.34895833333333 8.8515625  2.71726190476191 9  3.14285714285714 9  L 7.20647321428571 9  C 7.08370535714286 9.1328125  6.98139880952381 9.318359375  6.89955357142857 9.556640625  C 6.81770833333333 9.794921875  6.77678571428571 10.01171875  6.77678571428571 10.20703125  C 6.77678571428571 10.74609375  6.9936755952381 11.2109375  7.42745535714286 11.6015625  C 7.28013392857143 11.8515625  7.20647321428571 12.12109375  7.20647321428571 12.41015625  C 7.20647321428571 12.69921875  7.27808779761905 12.986328125  7.42131696428571 13.271484375  C 7.56454613095238 13.556640625  7.75892857142857 13.76171875  8.00446428571428 13.88671875  C 7.97172619047619 14.07421875  7.95535714285714 14.29296875  7.95535714285714 14.54296875  C 7.95535714285714 15.20703125  8.1538318452381 15.69921875  8.55078125 16.01953125  C 8.94773065476191 16.33984375  9.50223214285714 16.5  10.2142857142857 16.5  C 10.9017857142857 16.5  11.6506696428571 16.375  12.4609375 16.125  C 13.2712053571429 15.875  14.0651041666667 15.625  14.8426339285714 15.375  Z M 20.1953125 14.77734375  C 20.350818452381 14.62890625  20.4285714285714 14.453125  20.4285714285714 14.25  C 20.4285714285714 14.046875  20.350818452381 13.87109375  20.1953125 13.72265625  C 20.039806547619 13.57421875  19.8556547619048 13.5  19.6428571428571 13.5  C 19.4300595238095 13.5  19.2459077380952 13.57421875  19.0904017857143 13.72265625  C 18.9348958333333 13.87109375  18.8571428571429 14.046875  18.8571428571429 14.25  C 18.8571428571429 14.453125  18.9348958333333 14.62890625  19.0904017857143 14.77734375  C 19.2459077380952 14.92578125  19.4300595238095 15  19.6428571428571 15  C 19.8556547619048 15  20.039806547619 14.92578125  20.1953125 14.77734375  Z M 21.5396205357143 6.439453125  C 21.8465401785714 6.732421875  22 7.0859375  22 7.5  L 22 15  C 22 15.4140625  21.8465401785714 15.767578125  21.5396205357143 16.060546875  C 21.2327008928571 16.353515625  20.8623511904762 16.5  20.4285714285714 16.5  L 16.8928571428571 16.5  C 16.4099702380952 16.5  15.4973958333333 16.73046875  14.1551339285714 17.19140625  C 12.6000744047619 17.73046875  11.3028273809524 18  10.2633928571429 18  C 9.10119047619048 18  8.15997023809524 17.697265625  7.43973214285714 17.091796875  C 6.71949404761905 16.486328125  6.36346726190476 15.63671875  6.37165178571429 14.54296875  L 6.38392857142857 14.484375  C 5.88467261904762 13.890625  5.63504464285714 13.1953125  5.63504464285714 12.3984375  C 5.63504464285714 12.2265625  5.64732142857143 12.05859375  5.671875 11.89453125  C 5.40178571428572 11.44921875  5.25037202380952 10.984375  5.21763392857143 10.5  L 3.14285714285714 10.5  C 2.28348214285714 10.5  1.54482886904762 10.203125  0.926897321428572 9.609375  C 0.308965773809524 9.015625  0 8.30859375  0 7.48828125  C 0 6.68359375  0.311011904761905 5.984375  0.933035714285714 5.390625  C 1.55505952380952 4.796875  2.29166666666667 4.5  3.14285714285714 4.5  L 7.734375 4.5  C 7.55431547619048 4.03125  7.46428571428571 3.53125  7.46428571428571 3  C 7.46428571428571 2.046875  7.79780505952381 1.30859375  8.46484375 0.785156249999999  C 9.13188244047619 0.261718749999998  9.97693452380952 0  11 0  C 11.3110119047619 0  11.5954241071429 0.0683593749999984  11.8532366071429 0.205078124999999  C 12.1110491071429 0.341796874999998  12.3361235119048 0.535156249999998  12.5284598214286 0.785156249999999  C 12.7207961309524 1.03515625  12.8865327380952 1.28125  13.0256696428571 1.5234375  C 13.164806547619 1.765625  13.3162202380952 2.046875  13.4799107142857 2.3671875  C 13.6436011904762 2.6875  13.7786458333333 2.9296875  13.8850446428571 3.09375  C 14.1715029761905 3.5234375  14.5807291666667 4.02734375  15.1127232142857 4.60546875  C 15.1290922619048 4.62890625  15.1863839285714 4.6953125  15.2845982142857 4.8046875  C 15.3828125 4.9140625  15.4605654761905 4.998046875  15.5178571428571 5.056640625  C 15.5751488095238 5.115234375  15.6590401785714 5.19921875  15.76953125 5.30859375  C 15.8800223214286 5.41796875  15.9782366071429 5.505859375  16.0641741071429 5.572265625  C 16.1501116071429 5.638671875  16.2421875 5.708984375  16.3404017857143 5.783203125  C 16.4386160714286 5.857421875  16.5347842261905 5.912109375  16.62890625 5.947265625  C 16.7230282738095 5.982421875  16.8110119047619 6  16.8928571428571 6  L 20.4285714285714 6  C 20.8623511904762 6  21.2327008928571 6.146484375  21.5396205357143 6.439453125  Z " fill-rule="nonzero" fill="#000000" stroke="none" transform="matrix(1 0 0 1 2477 3551 )" />
  </g>
</svg>