<?xml version="1.0" encoding="utf-8"?>
<svg version="1.1" xmlns:xlink="http://www.w3.org/1999/xlink" width="25px" height="25px" xmlns="http://www.w3.org/2000/svg">
  <g transform="matrix(1 0 0 1 -1675 -233 )">
    <path d="M 1687.5 233  C 1694.5 233  1700 238.5  1700 245.5  C 1700 252.5  1694.5 258  1687.5 258  C 1680.5 258  1675 252.5  1675 245.5  C 1675 238.5  1680.5 233  1687.5 233  Z " fill-rule="nonzero" fill="#ffffff" stroke="none" />
    <path d="M 1687.5 233.5  C 1694.22 233.5  1699.5 238.78  1699.5 245.5  C 1699.5 252.22  1694.22 257.5  1687.5 257.5  C 1680.78 257.5  1675.5 252.22  1675.5 245.5  C 1675.5 238.78  1680.78 233.5  1687.5 233.5  Z " stroke-width="1" stroke="#797979" fill="none" />
  </g>
</svg>