<?xml version="1.0" encoding="utf-8"?>
<svg version="1.1" xmlns:xlink="http://www.w3.org/1999/xlink" width="24px" height="22px" xmlns="http://www.w3.org/2000/svg">
  <g transform="matrix(1 0 0 1 -809 -1597 )">
    <path d="M 23.4343434343434 16.4444444444444  C 23.8114478114478 16.7901234567901  24 17.2098765432099  24 17.7037037037037  C 24 18.1975308641975  23.8114478114478 18.6172839506173  23.4343434343434 18.962962962963  L 20.6868686868687 21.4814814814815  C 20.3097643097643 21.8271604938272  19.8518518518519 22  19.3131313131313 22  C 18.7744107744108 22  18.3164983164983 21.8271604938272  17.9393939393939 21.4814814814815  L 12 16.037037037037  L 6.06060606060606 21.4814814814815  C 5.68350168350168 21.8271604938272  5.22558922558923 22  4.68686868686869 22  C 4.14814814814815 22  3.69023569023569 21.8271604938272  3.31313131313131 21.4814814814815  L 0.565656565656566 18.962962962963  C 0.188552188552189 18.6172839506173  0 18.1975308641975  0 17.7037037037037  C 0 17.2098765432099  0.188552188552189 16.7901234567901  0.565656565656566 16.4444444444444  L 6.50505050505051 11  L 0.565656565656566 5.55555555555555  C 0.188552188552189 5.20987654320987  0 4.79012345679012  0 4.2962962962963  C 0 3.80246913580247  0.188552188552189 3.38271604938271  0.565656565656566 3.03703703703704  L 3.31313131313131 0.518518518518519  C 3.69023569023569 0.172839506172839  4.14814814814815 0  4.68686868686869 0  C 5.22558922558923 0  5.68350168350168 0.172839506172839  6.06060606060606 0.518518518518519  L 12 5.96296296296296  L 17.9393939393939 0.518518518518519  C 18.3164983164983 0.172839506172839  18.7744107744108 0  19.3131313131313 0  C 19.8518518518519 0  20.3097643097643 0.172839506172839  20.6868686868687 0.518518518518519  L 23.4343434343434 3.03703703703704  C 23.8114478114478 3.38271604938271  24 3.80246913580247  24 4.2962962962963  C 24 4.79012345679012  23.8114478114478 5.20987654320987  23.4343434343434 5.55555555555555  L 17.4949494949495 11  L 23.4343434343434 16.4444444444444  Z " fill-rule="nonzero" fill="#000000" stroke="none" transform="matrix(1 0 0 1 809 1597 )" />
  </g>
</svg>