<?xml version="1.0" encoding="utf-8"?>
<svg version="1.1" xmlns:xlink="http://www.w3.org/1999/xlink" width="25px" height="25px" xmlns="http://www.w3.org/2000/svg">
  <defs>
    <filter x="924px" y="684px" width="25px" height="25px" filterUnits="userSpaceOnUse" id="filter15">
      <feOffset dx="1" dy="1" in="SourceAlpha" result="shadowOffsetInner" />
      <feGaussianBlur stdDeviation="2.5" in="shadowOffsetInner" result="shadowGaussian" />
      <feComposite in2="shadowGaussian" operator="atop" in="SourceAlpha" result="shadowComposite" />
      <feColorMatrix type="matrix" values="0 0 0 0 0  0 0 0 0 0  0 0 0 0 0  0 0 0 0.698039215686274 0  " in="shadowComposite" />
    </filter>
    <g id="widget16">
      <path d="M 935.5 688  C 939.7 688  943 691.3  943 695.5  C 943 699.7  939.7 703  935.5 703  C 931.3 703  928 699.7  928 695.5  C 928 691.3  931.3 688  935.5 688  Z " fill-rule="nonzero" fill="#009dd9" stroke="none" />
      <path d="M 935.5 688.5  C 939.42 688.5  942.5 691.58  942.5 695.5  C 942.5 699.42  939.42 702.5  935.5 702.5  C 931.58 702.5  928.5 699.42  928.5 695.5  C 928.5 691.58  931.58 688.5  935.5 688.5  Z " stroke-width="1" stroke="#ffffff" fill="none" />
    </g>
  </defs>
  <g transform="matrix(1 0 0 1 -924 -684 )">
    <use xlink:href="#widget16" filter="url(#filter15)" />
    <use xlink:href="#widget16" />
  </g>
</svg>